With: Abhishek Bachchan, Sonam Kapoor and Bipasha Basu

Charlie is een man die een dubbelleven leidt. Overdag is hij boekhouder en 's nachts is hij een crimineel. Samen met een team specialisten besluit hij een transport van een enorme hoeveelheid goud te overvallen. Aangezien het één van de grootste en gedurfdste operaties ooit zal worden, bedenken ze een uitgekiend plan.

Two thieves, a magician, a computer hacker, a wannabe actor and a explosives expert plan a robbery to fulfill the dream of Victor Braganza. Will they be successful or will destiny have something different for them? 

------------------------ Dutch Friends ------------------------
---------------------------------------------------------------
- Bezoek ook eens mijn vrienden op:  http://www.Film-Test.nl --
----- voor mijn Nederlandse Sync. ondertitels ---- en meer ----
------- http://www.Film-Test.nl ---- voor Films en meer -------
---------------------------------------------------------------

General:

Complete name                    : Players\Players.avi
Format                           : AVI
Format/Info                      : Audio Video Interleave
File size                        : 2.55 GiB
Duration                         : 2h 43mn
Overall bit rate                 : 2 233 Kbps

Video:

Format                           : MPEG-4 Visual
Format profile                   : Simple@L3
Format settings, BVOP            : No
Format settings, QPel            : No
Format settings, GMC             : No warppoints
Format settings, Matrix          : Default (H.263)
Codec ID                         : XVID
Codec ID/Hint                    : XviD
Duration                         : 2h 43mn
Bit rate                         : 1 774 Kbps
Width                            : 720 pixels
Height                           : 304 pixels
Display aspect ratio             : 2.35:1
Frame rate                       : 23.976 fps
Color space                      : YUV
Chroma subsampling               : 4:2:0
Bit depth                        : 8 bits
Scan type                        : Progressive
Compression mode                 : Lossy
Bits/(Pixel*Frame)               : 0.338
Stream size                      : 2.03 GiB (79%)
Writing library                  : XviD 1.1.2 (UTC 2006-11-01)

Audio:

Format                           : AC-3
Format/Info                      : Audio Coding 3
Mode extension                   : CM (complete main)
Codec ID                         : 2000
Duration                         : 2h 43mn
Bit rate mode                    : Constant
Bit rate                         : 448 Kbps
Channel(s)                       : 6 channels
Channel positions                : Front: L C R, Side: L R, LFE
Sampling rate                    : 48.0 KHz
Bit depth                        : 16 bits
Compression mode                 : Lossy
Stream size                      : 524 MiB (20%)
Alignment                        : Aligned on interleaves
Interleave, duration             : 32 ms (0.77 video frame)
Interleave, preload duration     : 288 ms


